<svg xmlns="http://www.w3.org/2000/svg" aria-hidden="true" style="position:absolute;width:0;height:0;overflow:hidden">
  <defs>
    <symbol id="arrow-down" viewBox="0 0 32 32">
      <path stroke-linecap="round" stroke-linejoin="round" stroke-width="1.867" d="m8 12.667 8 8 8-8"/>
    </symbol>
    <symbol id="close" viewBox="0 0 32 32">
      <path d="M8.74 8.74a.934.934 0 0 1 1.32 0l13.199 13.199a.934.934 0 0 1-1.32 1.32L8.74 10.06a.934.934 0 0 1 0-1.32z"/>
      <path d="M8.74 23.26a.934.934 0 0 1 0-1.32L21.939 8.741a.934.934 0 0 1 1.32 1.32L10.06 23.26a.934.934 0 0 1-1.32 0z"/>
    </symbol>
    <symbol id="burger" viewBox="0 0 32 32">
      <path d="M4.4 9.333c0-.515.418-.933.933-.933h21.333a.933.933 0 0 1 0 1.866H5.333a.933.933 0 0 1-.933-.933zM4.4 16c0-.515.418-.933.933-.933h21.333a.933.933 0 0 1 0 1.866H5.333A.933.933 0 0 1 4.4 16zM4.4 22.666c0-.515.418-.933.933-.933h21.333a.933.933 0 0 1 0 1.866H5.333a.933.933 0 0 1-.933-.933z"/>
    </symbol>
    <symbol id="logo" viewBox="0 0 66 32">
      <path fill="#fff" d="M31.043 15.533h-3.242l-1.692 7.78h3.492c2.512 0 3.258-1.383 3.267-2.475.008-.951-.532-1.34-1.042-1.507l.017-.086c.714-.157 1.582-.74 1.591-1.94.009-1.156-.885-1.772-2.392-1.772zm-2.631 6.192.343-1.545h1.379c.527 0 .839.216.836.665-.004.465-.358.881-1.104.881h-1.453zm.685-3.134.321-1.47h1.272c.527 0 .818.2.815.627-.004.443-.337.843-1.098.843h-1.309zM34.446 15.533l-1.692 7.78h5.574l.37-1.686h-3.551l1.321-6.094h-2.023zM42.262 15.533l-3.814 7.618-.033.162h1.922l.748-1.621h2.273l.045 1.621h1.842l.033-.162-.503-7.618h-2.512zm-.42 4.527 1.311-2.837h.085l.073 2.837h-1.469z" style="fill:var(--color1, #fff)"/>
      <path fill="#fff" d="M49.103 15.533h-2.188l-1.692 7.78h2.693c3.391 0 4.502-2.529 4.52-4.69.016-2.005-1.3-3.09-3.334-3.09zm-1.529 6.138.968-4.495h.484c.937 0 1.47.519 1.462 1.507-.012 1.443-.738 2.988-2.292 2.988h-.623zM53.56 15.533l-1.691 7.78h5.802l.343-1.588h-3.822l.337-1.534h3.215l.343-1.588h-3.21l.321-1.48h3.747l.343-1.588h-5.727zM34.163 6.528l-.359 1.664h2.204l-1.332 6.116h2.001l1.332-6.116h2.204l.359-1.664h-6.409zM43.964 6.528h-3.146l-1.692 7.78h1.959l.663-3.058h.106l1.577 3.058h1.985l.033-.162-1.59-2.885c1.939-.162 2.656-1.28 2.667-2.637.011-1.34-.978-2.096-2.565-2.096zm-1.906 3.295.376-1.707h1.251c.607 0 .951.243.947.719-.004.497-.359.989-1.243.989h-1.331z" style="fill:var(--color1, #fff)"/>
      <path fill="#fff" d="m48.889 6.528-3.814 7.618-.033.162h1.922l.748-1.621h2.273l.045 1.621h1.842l.033-.162-.502-7.618H48.89zm-.42 4.527 1.311-2.836h.085l.073 2.837h-1.469z" style="fill:var(--color1, #fff)"/>
      <path fill="#fff" d="M55.73 6.528h-2.188l-1.692 7.78h2.694c3.391 0 4.502-2.529 4.52-4.69.017-2.005-1.3-3.09-3.334-3.09zm-1.529 6.137.968-4.495h.484c.937 0 1.47.519 1.462 1.507-.011 1.443-.737 2.988-2.291 2.988h-.623zM60.188 6.528l-1.692 7.78h5.802l.343-1.588h-3.822l.337-1.534h3.215l.343-1.588h-3.209l.321-1.48h3.748l.343-1.588H60.19z" style="fill:var(--color1, #fff)"/>
      <path fill="#57e1ff" d="m14.791 18.795 4.765-8.253h-9.53l4.765 8.253z" style="fill:var(--color2, #57e1ff)"/>
      <path fill="#5e47ff" d="M12.669 23.334 0 1.463l6.293 5.05 8.044 13.933-1.668 2.889zM24.562 10.092 11.955 32l1.227-7.975 8.044-13.933h3.336zM7.222 6.552l25.276-.036-7.52 2.925H8.89L7.222 6.552z" style="fill:var(--color3, #5e47ff)"/>
    </symbol>
    <symbol id="arrow-up" viewBox="0 0 20 32">
      <path stroke-width="3.556" d="m9.608 2.515 7.619 8m-7.619-8-8.381 8m8.381-8v28.444"/>
    </symbol>
    <symbol id="divider-mob" viewBox="0 0 104 32">
      <path fill="#fff" d="M0 0h86.968c1.297 0 2.489.715 3.099 1.859l13.324 24.976c1.248 2.34-.447 5.165-3.099 5.165H3.512A3.512 3.512 0 0 1 0 28.488V0z" style="fill:var(--color1, #fff)"/>
    </symbol>
    <symbol id="divider-desc" viewBox="0 0 341 32">
      <path fill="#fff" d="M0 0h307.033c1.132 0 2.217.45 3.017 1.25L340.8 32H0V0z" style="fill:var(--color1, #fff)"/>
    </symbol>
    <symbol id="arrow-up" viewBox="0 0 20 32">
      <path stroke-width="3.556" d="m9.608 2.515 7.619 8m-7.619-8-8.381 8m8.381-8v28.444"/>
    </symbol>
    <symbol id="logo-overlay" viewBox="0 0 32 32">
      <path d="M12.608 23.221 0 1.456l6.262 5.026 8.005 13.865-1.66 2.875zM24.443 10.043 11.898 31.844l1.221-7.936 8.005-13.865h3.319zM14.72 18.703l4.742-8.213H9.978l4.742 8.213zM7.187 6.52l25.153-.036-7.484 2.911H8.846L7.186 6.52z"/>
    </symbol>
    <symbol id="check" viewBox="0 0 32 32">
      <path stroke-linecap="round" stroke-linejoin="round" stroke-width="3.733" d="m5.333 17.5 9.899 9.899 14-21"/>
    </symbol>
  </defs>
</svg>
